<?xml version="1.0" encoding="ISO-8859-1"?>
<!DOCTYPE svg PUBLIC "-//W3C//DTD SVG 1.0//EN" "http://www.w3.org/TR/2001/REC-SVG-20010904/DTD/svg10.dtd">
<!-- generated by Grace-5.1.25 -->
<svg xml:space="preserve" width="8.5000in" height="11.0000in" viewBox="0.0000 0.0000 612.0000 792.0000">
 <g transform="translate(0,792.0000) scale(1,-1)">
  <g style="fill:#FFFFFF; fill-rule:nonzero">
   <path  d="M0.0000,0.0000L0.0000,792.0000L612.0000,792.0000L612.0000,0.0000z"/>
  </g>
  <g style="fill:none; stroke:#000000; stroke-width:  4.1310; stroke-linecap:butt; stroke-linejoin:miter; stroke-dasharray:none">
   <path d="M321.3000,111.8287L321.3000,123.9688"/>
   <path d="M310.5900,123.9688L332.0100,123.9688"/>
   <path d="M321.3000,111.8287L321.3000,99.6887"/>
   <path d="M332.0100,99.6887L310.5900,99.6887"/>
   <path d="M413.1000,118.9646L413.1000,156.5965"/>
   <path d="M402.3900,156.5965L423.8100,156.5965"/>
   <path d="M413.1000,118.9646L413.1000,81.3328"/>
   <path d="M423.8100,81.3328L402.3900,81.3328"/>
   <path d="M504.9000,152.2432L504.9000,178.2736"/>
   <path d="M494.1900,178.2736L515.6100,178.2736"/>
   <path d="M504.9000,152.2432L504.9000,126.2128"/>
   <path d="M515.6100,126.2128L494.1900,126.2128"/>
  </g>
  <g style="fill:#000000; fill-rule:nonzero">
   <path  d="M313.4970,104.0257L313.4970,119.6317L329.1030,119.6317L329.1030,104.0257z"/>
  </g>
  <g style="fill:none; stroke:#000000; stroke-width:  0.9180; stroke-linecap:butt; stroke-linejoin:miter; stroke-dasharray:none">
   <path d="M313.4970,104.0257L313.4970,119.6317L329.1030,119.6317L329.1030,104.0257z"/>
  </g>
  <g style="fill:#000000; fill-rule:nonzero">
   <path  d="M405.2970,111.1616L405.2970,126.7676L420.9030,126.7676L420.9030,111.1616z"/>
  </g>
  <g style="fill:none; stroke:#000000; stroke-width:  0.9180; stroke-linecap:butt; stroke-linejoin:miter; stroke-dasharray:none">
   <path d="M405.2970,111.1616L405.2970,126.7676L420.9030,126.7676L420.9030,111.1616z"/>
  </g>
  <g style="fill:#000000; fill-rule:nonzero">
   <path  d="M497.0970,144.4402L497.0970,160.0462L512.7030,160.0462L512.7030,144.4402z"/>
  </g>
  <g style="fill:none; stroke:#000000; stroke-width:  0.9180; stroke-linecap:butt; stroke-linejoin:miter; stroke-dasharray:none">
   <path d="M497.0970,144.4402L497.0970,160.0462L512.7030,160.0462L512.7030,144.4402z"/>
  </g>
  <g style="fill:none; stroke:#00A368; stroke-width:  1.8360; stroke-linecap:butt; stroke-linejoin:miter; stroke-dasharray:none">
   <path d="M298.3500,377.5825L298.3500,380.5470"/>
   <path d="M298.3500,380.5470L298.3500,380.5470"/>
   <path d="M298.3500,377.5825L298.3500,374.6180"/>
   <path d="M298.3500,374.6180L298.3500,374.6180"/>
   <path d="M390.1500,134.4058L390.1500,139.3591"/>
   <path d="M390.1500,139.3591L390.1500,139.3591"/>
   <path d="M390.1500,134.4058L390.1500,129.4525"/>
   <path d="M390.1500,129.4525L390.1500,129.4525"/>
   <path d="M481.9500,151.4338L481.9500,156.2776"/>
   <path d="M481.9500,156.2776L481.9500,156.2776"/>
   <path d="M481.9500,151.4338L481.9500,146.5900"/>
   <path d="M481.9500,146.5900L481.9500,146.5900"/>
  </g>
  <g style="fill:none; stroke:#00A368; stroke-width:  2.2950; stroke-linecap:butt; stroke-linejoin:miter; stroke-dasharray:none">
   <ellipse  rx="4.5900" ry="4.5900" cx="298.3500" cy="377.5825"/>
   <ellipse  rx="4.5900" ry="4.5900" cx="390.1500" cy="134.4058"/>
   <ellipse  rx="4.5900" ry="4.5900" cx="481.9500" cy="151.4338"/>
  </g>
  <g style="fill:none; stroke:#0088BF; stroke-width:  2.7540; stroke-linecap:butt; stroke-linejoin:miter; stroke-dasharray:none">
   <path d="M321.3000,333.0122L321.3000,335.6254"/>
   <path d="M321.3000,335.6254L321.3000,335.6254"/>
   <path d="M321.3000,333.0122L321.3000,330.3990"/>
   <path d="M321.3000,330.3990L321.3000,330.3990"/>
   <path d="M413.1000,471.2236L413.1000,476.2812"/>
   <path d="M413.1000,476.2812L413.1000,476.2812"/>
   <path d="M413.1000,471.2236L413.1000,466.1661"/>
   <path d="M413.1000,466.1661L413.1000,466.1661"/>
   <path d="M504.9000,497.0435L504.9000,501.6598"/>
   <path d="M504.9000,501.6598L504.9000,501.6598"/>
   <path d="M504.9000,497.0435L504.9000,492.4271"/>
   <path d="M504.9000,492.4271L504.9000,492.4271"/>
  </g>
  <g style="fill:none; stroke:#0088BF; stroke-width:  2.2950; stroke-linecap:butt; stroke-linejoin:miter; stroke-dasharray:none">
   <path d="M316.7100,335.6622L321.3000,327.7121L325.8900,335.6622z"/>
   <path d="M408.5100,473.8737L413.1000,465.9236L417.6900,473.8737z"/>
   <path d="M500.3100,499.6935L504.9000,491.7434L509.4900,499.6935z"/>
  </g>
  <g style="fill:none; stroke:#D70039; stroke-width:  1.3770; stroke-linecap:butt; stroke-linejoin:miter; stroke-dasharray:none">
   <path d="M403.9200,122.7474L403.9200,127.7813"/>
   <path d="M403.9200,127.7813L403.9200,127.7813"/>
   <path d="M403.9200,122.7474L403.9200,117.7134"/>
   <path d="M403.9200,117.7134L403.9200,117.7134"/>
   <path d="M495.7200,129.0852L495.7200,134.6015"/>
   <path d="M495.7200,134.6015L495.7200,134.6015"/>
   <path d="M495.7200,129.0852L495.7200,123.5690"/>
   <path d="M495.7200,123.5690L495.7200,123.5690"/>
  </g>
  <g style="fill:#D70039; fill-rule:nonzero">
   <path  d="M398.6199,122.7474L406.5700,118.1574L406.5700,127.3374z"/>
  </g>
  <g style="fill:none; stroke:#D70039; stroke-width:  0.9180; stroke-linecap:butt; stroke-linejoin:miter; stroke-dasharray:none">
   <path d="M398.6199,122.7474L406.5700,118.1574L406.5700,127.3374z"/>
  </g>
  <g style="fill:#D70039; fill-rule:nonzero">
   <path  d="M490.4199,129.0852L498.3700,124.4952L498.3700,133.6752z"/>
  </g>
  <g style="fill:none; stroke:#D70039; stroke-width:  0.9180; stroke-linecap:butt; stroke-linejoin:miter; stroke-dasharray:none">
   <path d="M490.4199,129.0852L498.3700,124.4952L498.3700,133.6752z"/>
  </g>
  <g style="fill:none; stroke:#7BEE9E; stroke-width:  1.8360; stroke-linecap:butt; stroke-linejoin:miter; stroke-dasharray:none">
   <path d="M302.9400,198.6053L302.9400,200.7935"/>
   <path d="M302.9400,200.7935L302.9400,200.7935"/>
   <path d="M302.9400,198.6053L302.9400,196.4171"/>
   <path d="M302.9400,196.4171L302.9400,196.4171"/>
   <path d="M394.7400,101.7551L394.7400,104.7435"/>
   <path d="M394.7400,104.7435L394.7400,104.7435"/>
   <path d="M394.7400,101.7551L394.7400,98.7667"/>
   <path d="M394.7400,98.7667L394.7400,98.7667"/>
   <path d="M486.5400,114.6372L486.5400,117.7091"/>
   <path d="M486.5400,117.7091L486.5400,117.7091"/>
   <path d="M486.5400,114.6372L486.5400,111.5652"/>
   <path d="M486.5400,111.5652L486.5400,111.5652"/>
   <path d="M298.3500,198.6053L307.5300,198.6053"/>
   <path d="M302.9400,194.0153L302.9400,203.1953"/>
   <path d="M299.6944,195.3597L306.1856,201.8509"/>
   <path d="M299.6944,201.8509L306.1856,195.3597"/>
   <path d="M390.1500,101.7551L399.3300,101.7551"/>
   <path d="M394.7400,97.1651L394.7400,106.3451"/>
   <path d="M391.4944,98.5095L397.9856,105.0007"/>
   <path d="M391.4944,105.0007L397.9856,98.5095"/>
   <path d="M481.9500,114.6372L491.1300,114.6372"/>
   <path d="M486.5400,110.0472L486.5400,119.2272"/>
   <path d="M483.2944,111.3915L489.7856,117.8828"/>
   <path d="M483.2944,117.8828L489.7856,111.3915"/>
  </g>
  <g style="fill:none; stroke:#FFD300; stroke-width:  1.3770; stroke-linecap:butt; stroke-linejoin:miter; stroke-dasharray:none">
   <path d="M436.0500,78.9825L436.0500,85.8454"/>
   <path d="M436.0500,85.8454L436.0500,85.8454"/>
   <path d="M436.0500,78.9825L436.0500,72.1196"/>
   <path d="M436.0500,72.1196L436.0500,72.1196"/>
   <path d="M527.8500,102.1365L527.8500,107.8382"/>
   <path d="M527.8500,107.8382L527.8500,107.8382"/>
   <path d="M527.8500,102.1365L527.8500,96.4348"/>
   <path d="M527.8500,96.4348L527.8500,96.4348"/>
  </g>
  <g style="fill:none; stroke:#FFD300; stroke-width:  1.8360; stroke-linecap:butt; stroke-linejoin:miter; stroke-dasharray:none">
   <path d="M436.0500,83.5725L431.4600,78.9825L436.0500,74.3925L440.6400,78.9825z"/>
   <path d="M527.8500,106.7265L523.2600,102.1365L527.8500,97.5465L532.4400,102.1365z"/>
  </g>
  <g style="fill:none; stroke:#F9ADA7; stroke-width:  1.3770; stroke-linecap:butt; stroke-linejoin:miter; stroke-dasharray:none">
   <path d="M422.2800,56.9509L422.2800,58.8905"/>
   <path d="M422.2800,58.8905L422.2800,58.8905"/>
   <path d="M422.2800,56.9509L422.2800,55.0114"/>
   <path d="M422.2800,55.0114L422.2800,55.0114"/>
   <path d="M514.0800,120.8768L514.0800,122.9252"/>
   <path d="M514.0800,122.9252L514.0800,122.9252"/>
   <path d="M514.0800,120.8768L514.0800,118.8284"/>
   <path d="M514.0800,118.8284L514.0800,118.8284"/>
  </g>
  <g style="fill:#F9ADA7; fill-rule:nonzero">
   <ellipse  rx="4.5900" ry="4.5900" cx="422.2800" cy="56.9509"/>
  </g>
  <g style="fill:none; stroke:#F9ADA7; stroke-width:  0.9180; stroke-linecap:butt; stroke-linejoin:miter; stroke-dasharray:none">
   <ellipse  rx="4.5900" ry="4.5900" cx="422.2800" cy="56.9509"/>
  </g>
  <g style="fill:#F9ADA7; fill-rule:nonzero">
   <ellipse  rx="4.5900" ry="4.5900" cx="514.0800" cy="120.8768"/>
  </g>
  <g style="fill:none; stroke:#F9ADA7; stroke-width:  0.9180; stroke-linecap:butt; stroke-linejoin:miter; stroke-dasharray:none">
   <ellipse  rx="4.5900" ry="4.5900" cx="514.0800" cy="120.8768"/>
  </g>
  <g style="fill:none; stroke:#000000; stroke-width:  0.9180; stroke-linecap:butt; stroke-linejoin:miter; stroke-dasharray:none">
   <path d="M275.4000,45.9000L550.8000,45.9000"/>
   <path d="M275.4000,550.8000L550.8000,550.8000"/>
   <path d="M275.4000,45.9000L275.4000,52.0200"/>
   <path d="M275.4000,550.8000L275.4000,544.6800"/>
   <path d="M367.2000,45.9000L367.2000,52.0200"/>
   <path d="M367.2000,550.8000L367.2000,544.6800"/>
   <path d="M459.0000,45.9000L459.0000,52.0200"/>
   <path d="M459.0000,550.8000L459.0000,544.6800"/>
   <path d="M550.8000,45.9000L550.8000,52.0200"/>
   <path d="M550.8000,550.8000L550.8000,544.6800"/>
   <path d="M321.3000,45.9000L321.3000,45.9000"/>
   <path d="M321.3000,550.8000L321.3000,550.8000"/>
   <path d="M413.1000,45.9000L413.1000,45.9000"/>
   <path d="M413.1000,550.8000L413.1000,550.8000"/>
   <path d="M504.9000,45.9000L504.9000,45.9000"/>
   <path d="M504.9000,550.8000L504.9000,550.8000"/>
  </g>
  <g style="fill:#000000; fill-rule:nonzero">
   <text   style="font-family:'Symbol','Standard Symbols L'; font-style:normal; font-weight:normal; font-size:612.0000" transform="matrix(0.0280,0.0000,-0.0000,-0.0280,317.3000,30.7800)">g</text>
   <text   style="font-family:'Symbol','Standard Symbols L'; font-style:normal; font-weight:normal; font-size:612.0000" transform="matrix(0.0280,0.0000,-0.0000,-0.0280,408.6000,26.7800)">b</text>
   <text   style="font-family:'Symbol','Standard Symbols L'; font-style:normal; font-weight:normal; font-size:612.0000" transform="matrix(0.0280,0.0000,-0.0000,-0.0280,499.4000,30.7800)">a</text>
   <text   style="font-family:'Helvetica','Nimbus Sans L'; font-style:normal; font-weight:normal; font-size:612.0000" transform="matrix(0.0280,0.0000,-0.0000,-0.0280,352.1000,4.6600)">carbon segment</text>
  </g>
  <g style="fill:none; stroke:#000000; stroke-width:  0.9180; stroke-linecap:butt; stroke-linejoin:miter; stroke-dasharray:none">
   <path d="M275.4000,45.9000L275.4000,550.8000"/>
   <path d="M275.4000,158.1000L278.4600,158.1000"/>
   <path d="M275.4000,382.5000L278.4600,382.5000"/>
   <path d="M275.4000,45.9000L281.5200,45.9000"/>
   <path d="M275.4000,270.3000L281.5200,270.3000"/>
   <path d="M275.4000,494.7000L281.5200,494.7000"/>
  </g>
  <g style="fill:#000000; fill-rule:nonzero">
   <text   style="font-family:'Helvetica','Nimbus Sans L'; font-style:normal; font-weight:normal; font-size:612.0000" transform="matrix(0.0280,0.0000,-0.0000,-0.0280,260.2800,39.9000)">2</text>
   <text   style="font-family:'Helvetica','Nimbus Sans L'; font-style:normal; font-weight:normal; font-size:612.0000" transform="matrix(0.0280,0.0000,-0.0000,-0.0280,260.2800,264.3000)">3</text>
   <text   style="font-family:'Helvetica','Nimbus Sans L'; font-style:normal; font-weight:normal; font-size:612.0000" transform="matrix(0.0280,0.0000,-0.0000,-0.0280,260.2800,488.7000)">4</text>
   <text   style="font-family:'Helvetica','Nimbus Sans L'; font-style:normal; font-weight:normal; font-size:612.0000" transform="matrix(0.0000,0.0280,0.0280,-0.0070,247.3056,271.8500)">R</text>
   <text   style="font-family:'Helvetica','Nimbus Sans L'; font-style:normal; font-weight:normal; font-size:612.0000" transform="matrix(0.0000,0.0198,0.0198,-0.0000,254.1600,283.8500)">1</text>
   <text   style="font-family:'Helvetica','Nimbus Sans L'; font-style:normal; font-weight:normal; font-size:612.0000" transform="matrix(0.0000,0.0280,0.0280,-0.0000,247.3056,290.8500)"> (s</text>
   <text   style="font-family:'Helvetica','Nimbus Sans L'; font-style:normal; font-weight:normal; font-size:612.0000" transform="matrix(0.0000,0.0198,0.0198,-0.0000,237.0240,309.8500)">-1</text>
   <text   style="font-family:'Helvetica','Nimbus Sans L'; font-style:normal; font-weight:normal; font-size:612.0000" transform="matrix(0.0000,0.0280,0.0280,-0.0000,247.3056,320.8500)">)</text>
  </g>
  <g style="fill:none; stroke:#000000; stroke-width:  0.9180; stroke-linecap:butt; stroke-linejoin:miter; stroke-dasharray:none">
   <path d="M275.4000,45.9000L275.4000,550.8000L550.8000,550.8000L550.8000,45.9000z"/>
  </g>
 </g>
</svg>
